<?xml version="1.0" standalone="no"?>
<!DOCTYPE svg PUBLIC "-//W3C//DTD SVG 20010904//EN"
 "http://www.w3.org/TR/2001/REC-SVG-20010904/DTD/svg10.dtd">
<svg version="1.0" xmlns="http://www.w3.org/2000/svg"
 width="800.000000pt" height="800.000000pt" viewBox="0 0 800.000000 800.000000"
 preserveAspectRatio="xMidYMid meet">
<metadata>
Created by potrace 1.14, written by Peter Selinger 2001-2017
</metadata>
<g transform="translate(0.000000,800.000000) scale(0.100000,-0.100000)"
fill="#000000" stroke="none">
<path d="M589 7980 c-254 -63 -461 -247 -544 -485 -46 -133 -44 28 -44 -3500
-1 -3305 0 -3331 20 -3408 76 -297 297 -510 591 -571 69 -14 402 -16 3395 -16
3544 1 3357 -2 3497 48 191 69 368 242 440 430 60 155 56 -103 56 3527 0 3321
-1 3330 -21 3409 -25 97 -63 183 -113 256 -41 59 -163 181 -205 205 -86 48
-180 88 -248 104 -76 19 -164 19 -3413 19 -3219 0 -3338 0 -3411 -18z"/>
</g>
</svg>
